<?xml version="1.0" encoding="UTF-8" standalone="no"?> <svg xmlns="http://www.w3.org/2000/svg" xmlns:xlink="http://www.w3.org/1999/xlink" viewBox="0 0 64 64"><defs><style>.cls-1{fill:url(#linear-gradient);}.cls-2{fill:url(#linear-gradient-2);}.cls-3{fill:url(#linear-gradient-3);}.cls-4{fill:url(#linear-gradient-4);}</style><linearGradient id="linear-gradient" x1="2.75" y1="32" x2="61.25" y2="32" gradientUnits="userSpaceOnUse"><stop offset="0" stop-color="#ffd746"/><stop offset="0.58" stop-color="#ffb04a"/><stop offset="1" stop-color="#ff984c"/></linearGradient><linearGradient id="linear-gradient-2" x1="7.4" x2="56.6" xlink:href="#linear-gradient"/><linearGradient id="linear-gradient-3" x1="28.04" y1="35.94" x2="35.96" y2="35.94" xlink:href="#linear-gradient"/><linearGradient id="linear-gradient-4" x1="28.04" y1="17.55" x2="35.96" y2="17.55" xlink:href="#linear-gradient"/></defs><g id="Layer_14" data-name="Layer 14"><path class="cls-1" d="M32,2.75A29.25,29.25,0,1,0,61.25,32,29.28,29.28,0,0,0,32,2.75Zm0,56A26.75,26.75,0,1,1,58.75,32,26.78,26.78,0,0,1,32,58.75Z"/><path class="cls-2" d="M32,7.4A24.6,24.6,0,1,0,56.6,32,24.62,24.62,0,0,0,32,7.4Zm0,46.7A22.1,22.1,0,1,1,54.1,32,22.12,22.12,0,0,1,32,54.1Z"/><path class="cls-3" d="M32,23.66a4,4,0,0,0-4,4V44.26a4,4,0,0,0,7.92,0V27.62A4,4,0,0,0,32,23.66Zm1.46,20.6a1.46,1.46,0,0,1-2.92,0V27.62a1.46,1.46,0,0,1,2.92,0Z"/><path class="cls-4" d="M32,13.59a4,4,0,1,0,4,4A4,4,0,0,0,32,13.59ZM32,19a1.46,1.46,0,1,1,1.46-1.46A1.47,1.47,0,0,1,32,19Z"/></g></svg>